<svg xmlns="http://www.w3.org/2000/svg" enable-background="new 0 0 510.267 510.267" height="510.267" width="510.267" style=""><rect id="backgroundrect" width="100%" height="100%" x="0" y="0" fill="none" stroke="none"/><g class="currentLayer" style=""><title>Layer 1</title><g id="svg_1" class="" stroke="#000000" fill="#2db6d8" fill-opacity="1" filter="" stroke-opacity="1"><path d="m463.184 131.703c-1.729-46.905-39.854-84.55-86.795-85.701-8.835-.22-17.604.858-26.055 3.199-15.026-29.945-46.104-49.201-79.657-49.201-34.977 0-66.573 20.389-81.051 52.111-11.793-4.637-24.244-6.661-37.037-6.024-17.607.879-34.415 6.956-48.608 17.571-3.317 2.481-3.995 7.181-1.514 10.498s7.181 3.995 10.498 1.514c11.795-8.822 25.755-13.871 40.372-14.601 11.218-.559 22.107 1.337 32.368 5.639 6.515 2.732 14.094-.337 16.893-6.846 11.713-27.253 38.436-44.862 68.079-44.862 28.376 0 54.625 16.563 66.871 42.196 2.779 5.818 9.216 8.716 15.311 6.887 7.478-2.242 15.275-3.278 23.163-3.086 39.032.958 70.734 32.258 72.172 71.259.722 19.571-6.141 38.296-19.32 52.727-4.444 4.865-4.445 12.487-.001 17.354 13.158 14.407 20.022 33.1 19.324 52.636-.358 10.021-2.713 19.695-7.002 28.754-1.771 3.744-.174 8.215 3.57 9.988 1.036.491 2.129.723 3.204.723 2.809 0 5.502-1.586 6.784-4.293 5.166-10.914 8.004-22.567 8.434-34.638.815-22.841-6.969-44.727-21.952-61.848 15.009-17.15 22.792-39.074 21.949-61.956z" id="svg_2" stroke="#000000" stroke-opacity="1" fill="#2db6d8" fill-opacity="1" filter=""/><path d="m424.948 306.071c-13.313 12.571-30.629 19.762-48.76 20.248-7.865.209-15.635-.805-23.102-3.019-6.127-1.815-12.574 1.12-15.328 6.983-12.162 25.909-38.493 42.65-67.081 42.65-29.852 0-56.647-17.783-68.264-45.305-2.765-6.55-10.345-9.662-16.894-6.937-10.236 4.259-21.093 6.13-32.28 5.555-39.012-1.999-69.847-34.198-70.2-73.304-.169-18.772 6.71-36.744 19.37-50.605 4.444-4.866 4.444-12.488 0-17.354-12.658-13.859-19.537-31.828-19.37-50.597.128-14.321 4.417-28.228 12.404-40.215 2.297-3.447 1.365-8.103-2.083-10.4-3.447-2.297-8.104-1.365-10.4 2.082-9.608 14.419-14.768 31.155-14.921 48.399-.195 21.926 7.607 42.945 22.007 59.406-14.402 16.464-22.205 37.488-22.007 59.417.423 47.026 37.51 85.746 84.431 88.15 12.753.65 25.163-1.34 36.923-5.926 14.371 32.04 46.057 52.632 81.282 52.632 33.81 0 64.993-19.47 79.923-49.745 8.435 2.31 17.165 3.365 25.989 3.125 21.825-.585 42.657-9.227 58.657-24.336 3.012-2.844 3.147-7.591.304-10.603-2.844-3.01-7.59-3.144-10.6-.301z" id="svg_3" stroke="#000000" stroke-opacity="1" fill="#2db6d8" fill-opacity="1" filter=""/><path d="m150.235 363.21c-11.349-1.499-22.598 1.513-31.68 8.478-9.082 6.964-14.908 17.049-16.406 28.395-3.091 23.424 13.45 44.995 36.873 48.086 1.905.251 3.805.375 5.694.375 9.367 0 18.427-3.058 25.985-8.854 9.082-6.964 14.908-17.049 16.406-28.395 3.093-23.422-13.449-44.994-36.872-48.085zm22.002 46.122c-.973 7.375-4.76 13.929-10.663 18.455-5.902 4.526-13.214 6.482-20.589 5.51-7.374-.973-13.929-4.76-18.455-10.663s-6.483-13.215-5.51-20.589c.973-7.375 4.76-13.929 10.663-18.455 4.912-3.767 10.8-5.754 16.888-5.754 1.227 0 2.463.081 3.701.244 15.223 2.01 25.974 16.029 23.965 31.252z" id="svg_4" stroke="#000000" stroke-opacity="1" fill="#2db6d8" fill-opacity="1" filter=""/><path d="m84.725 443.872c-18.227-2.398-35.009 10.465-37.415 28.69-2.405 18.226 10.465 35.01 28.691 37.415 1.474.194 2.936.289 4.384.289 16.459 0 30.82-12.229 33.03-28.98 1.165-8.829-1.177-17.582-6.597-24.649-5.418-7.066-13.264-11.6-22.093-12.765zm13.819 35.452c-1.323 10.025-10.558 17.104-20.581 15.783-10.025-1.323-17.106-10.556-15.782-20.581 1.216-9.215 9.114-15.941 18.169-15.941.796 0 1.602.052 2.412.159 4.856.641 9.173 3.135 12.154 7.022 2.981 3.886 4.269 8.702 3.628 13.558z" id="svg_5" stroke="#000000" stroke-opacity="1" fill="#2db6d8" fill-opacity="1" filter=""/><path d="m222.383 193.966c0-14.612-11.887-26.499-26.499-26.499-14.611 0-26.499 11.887-26.499 26.499 0 14.611 11.887 26.499 26.499 26.499 14.611 0 26.499-11.887 26.499-26.499zm-37.998 0c0-6.341 5.158-11.499 11.499-11.499s11.499 5.158 11.499 11.499c0 6.34-5.158 11.499-11.499 11.499s-11.499-5.158-11.499-11.499z" id="svg_6" stroke="#000000" stroke-opacity="1" fill="#2db6d8" fill-opacity="1" filter=""/><path d="m293.075 193.966c0-14.612-11.887-26.499-26.498-26.499s-26.499 11.887-26.499 26.499c0 14.611 11.888 26.499 26.499 26.499s26.498-11.887 26.498-26.499zm-37.998 0c0-6.341 5.158-11.499 11.499-11.499 6.34 0 11.498 5.158 11.498 11.499 0 6.34-5.158 11.499-11.498 11.499s-11.499-5.158-11.499-11.499z" id="svg_7" stroke="#000000" stroke-opacity="1" fill="#2db6d8" fill-opacity="1" filter=""/><path d="m363.767 193.966c0-14.612-11.887-26.499-26.498-26.499s-26.499 11.887-26.499 26.499c0 14.611 11.888 26.499 26.499 26.499s26.498-11.887 26.498-26.499zm-37.997 0c0-6.341 5.158-11.499 11.499-11.499 6.34 0 11.498 5.158 11.498 11.499 0 6.34-5.158 11.499-11.498 11.499-6.341 0-11.499-5.158-11.499-11.499z" id="svg_8" stroke="#000000" stroke-opacity="1" fill="#2db6d8" fill-opacity="1" filter=""/></g></g><defs><filter id="f108" xmlns:inkscape="http://www.inkscape.org/namespaces/inkscape" inkscape:label="Specular light" inkscape:menu="ABCs" inkscape:menu-tooltip="Basic specular bevel to use for building textures" color-interpolation-filters="sRGB">
            <feGaussianBlur result="result0" in="SourceAlpha" stdDeviation="6"/>
            <feSpecularLighting specularExponent="25" specularConstant="1" surfaceScale="10" lighting-color="#fff" result="result1" in="result0">
                <feDistantLight azimuth="235" elevation="45"/>
            </feSpecularLighting>
            <feComposite k3="1" k2="1" operator="arithmetic" result="result4" in="SourceGraphic" in2="result91"/>
            <feComposite operator="in" result="result2" in="result4" in2="SourceAlpha"/>
        </filter></defs></svg>